<svg xmlns="http://www.w3.org/2000/svg" width="336" height="382" version="1.0" viewBox="0 0 252 286.5"><defs><clipPath id="a"><path d="M.66.215h250.813v225.027H.66Zm0 0"/></clipPath><clipPath id="b"><path d="M67.98 22.52h116.047v112.304H67.98Zm0 0"/></clipPath></defs><g clip-path="url(#a)"><path fill="#ff914d" d="M126.066 169.906c-2.039 0-3.699-1.664-3.699-3.703a3.705 3.705 0 0 1 3.7-3.703c2.038 0 3.699 1.66 3.699 3.703 0 2.04-1.66 3.703-3.7 3.703Zm0-12.531c-4.867 0-8.816 3.965-8.816 8.828 0 4.875 3.95 8.828 8.816 8.828 4.871 0 8.82-3.953 8.82-8.828 0-4.863-3.948-8.828-8.82-8.828Zm106.82 25.09H19.247c-7.43 0-13.465-6.465-13.465-14.422v-18.106h240.574v18.106c0 7.957-6.039 14.422-13.468 14.422Zm-76.956 37.652H96.207l11.055-32.527h37.61ZM19.246 5.347h213.64c7.43 0 13.47 6.465 13.47 14.423v125.043H5.78V19.77c0-7.957 6.035-14.422 13.465-14.422ZM232.886.224H19.247C9 .223.66 8.993.66 19.77v148.273c0 10.781 8.34 19.547 18.586 19.547h82.61l-11.649 34.27c-.262.78-.14 1.64.34 2.312a2.593 2.593 0 0 0 2.09 1.07H159.5c.828 0 1.598-.402 2.086-1.07.48-.672.601-1.531.34-2.313l-11.645-34.27h82.606c10.25 0 18.586-8.765 18.586-19.546V19.77c0-10.778-8.336-19.547-18.586-19.547"/></g><g clip-path="url(#b)"><path fill="#ff914d" d="m184.023 24.543-.011-.211a1.862 1.862 0 0 0-2.063-1.64l-70.691 8.328a1.861 1.861 0 0 0-1.715 1.855v45.531a6.42 6.42 0 0 0-2.738 1.719 6.782 6.782 0 0 0-1.875 4.684v.074C96.8 86.25 89.504 90.16 83.902 95.762c-7.039 7.047-11.41 16.765-11.41 27.457 0 .281.008.617.02 1.004a5.315 5.315 0 0 0-2.973 9.02 5.313 5.313 0 0 0 3.758 1.558h108.867a1.864 1.864 0 0 0 1.863-1.867V32.875Zm-3.726 6.465h-37.121l37.12-4.371Zm-70.805 51.676h.008a2.65 2.65 0 0 1 1.91-.832h.016c.742 0 1.418.32 1.91.832l.082.082c.394.445.656 1.027.734 1.675-.879-.058-1.77-.09-2.664-.09h-.14c-.895 0-1.782.032-2.664.09.082-.687.375-1.3.808-1.757ZM86.547 98.406c6.363-6.37 15.148-10.324 24.8-10.324h.141c9.657 0 18.438 3.953 24.801 10.324 6.367 6.367 10.316 15.153 10.316 24.813l-.007.945H76.234l-.007-.945c0-9.66 3.953-18.446 10.32-24.813Zm-14.371 32.196a1.593 1.593 0 0 1-.465-1.122c0-.433.18-.828.465-1.12a1.6 1.6 0 0 1 1.12-.465h76.243c.438 0 .832.18 1.121.464a1.6 1.6 0 0 1 .465 1.121 1.593 1.593 0 0 1-1.586 1.59H73.293c-.43 0-.828-.18-1.117-.468Zm108.12.468H154.61c.16-.504.246-1.039.246-1.59 0-1.46-.597-2.792-1.562-3.757a5.315 5.315 0 0 0-2.977-1.5c.012-.391.02-.73.02-1.004 0-3.574-.492-7.04-1.402-10.328h18.707a1.867 1.867 0 1 0 0-3.735h-19.95a38.46 38.46 0 0 0-2.726-5.601h22.676a1.867 1.867 0 1 0 0-3.735h-25.18a38.865 38.865 0 0 0-5.168-5.601h30.348a1.867 1.867 0 1 0 0-3.735h-35.254a38.68 38.68 0 0 0-14.489-5.605v-.074a6.785 6.785 0 0 0-1.765-4.57l-.11-.122a6.449 6.449 0 0 0-2.753-1.718V34.742h67.023v96.328Zm-45.741-68.898c.73.73 1.91.73 2.636 0l2.489-2.484 5.586 5.59-11.532 11.538a1.867 1.867 0 0 0 0 2.637c.727.727 1.91.727 2.637 0l11.531-11.539 11.536 11.54a1.867 1.867 0 0 0 2.636 0c.727-.731.727-1.911 0-2.638L150.54 65.277l5.766-5.77c1.328.755 2.863 1.067 4.425.946 2.09-.168 4.235-1.117 5.934-2.816 1.695-1.7 2.645-3.84 2.813-5.934.175-2.191-.508-4.34-2.082-5.914l-.122-.121c-1.566-1.496-3.66-2.14-5.8-1.969-2.094.164-4.235 1.117-5.934 2.813-1.695 1.699-2.644 3.84-2.812 5.937-.125 1.563.187 3.098.945 4.422l-5.77 5.774-5.586-5.59 2.485-2.489c.73-.73.73-1.91 0-2.64l-9.946-9.95a1.86 1.86 0 0 0-2.636 0 1.867 1.867 0 0 0 0 2.637l8.629 8.633-1.168 1.172-8.63-8.633a1.86 1.86 0 0 0-2.636 0 1.86 1.86 0 0 0 0 2.637l8.629 8.633-1.172 1.172-8.625-8.633a1.865 1.865 0 1 0-2.64 2.636Zm21.89-9.438c.098-1.242.684-2.539 1.735-3.59 1.05-1.05 2.343-1.636 3.586-1.734 1.101-.086 2.156.215 2.918.926l.078.074c.765.77 1.09 1.856 1 2.996-.098 1.242-.684 2.54-1.735 3.59-1.05 1.05-2.343 1.637-3.586 1.734-1.117.086-2.191-.23-2.96-.968-.012-.012-.02-.024-.032-.035l-.035-.032c-.738-.765-1.059-1.84-.969-2.96Zm0 0"/></g><path fill="#ff914d" d="M78.264 268.359c-1.71-.543-2.75-2.215-3.125-5.016l-1.234-8.031-2.797-.89-1.5 4.421c-.293.93-.438 1.617-.438 2.063 0 .445.16.796.485 1.046.332.25.945.524 1.843.829l.032.28-1.11 2.298a80.56 80.56 0 0 0-2.453-.875c-1.18-.399-2.273-.758-3.281-1.078a78.053 78.053 0 0 0-3.016-.875c-1.043-.282-1.726-.454-2.047-.516l1.172-2.5c1.157.23 1.989.183 2.5-.14.52-.333.961-1.063 1.328-2.188l4.86-15.266c.238-.758.316-1.3.234-1.625-.086-.32-.375-.562-.875-.719a6.704 6.704 0 0 0-.844-.218 5.508 5.508 0 0 1-.515-.11l-.156-.39 1.125-2.266c.363.117 1.03.344 2 .688.976.335 1.945.656 2.906.968a97.2 97.2 0 0 0 3.422 1.016c1.238.344 2.093.574 2.562.687 3 .961 5.113 2.274 6.344 3.938 1.226 1.668 1.492 3.59.797 5.766-.492 1.554-1.406 2.828-2.75 3.828-1.336 1-2.992 1.664-4.969 1.984l1.672 6.734c.351 1.446.785 2.54 1.297 3.282a3.803 3.803 0 0 0 2.047 1.515l.172.453-.938 1.938Zm-2.516-15.813a7.749 7.749 0 0 0 2.891-.875c.938-.5 1.648-1.508 2.14-3.031.458-1.445.313-2.68-.437-3.703-.75-1.031-2.137-1.864-4.156-2.5-.274-.094-.469-.098-.594-.016-.117.086-.246.305-.39.656a203.346 203.346 0 0 0-2.875 7.954ZM109.508 265.604c-.761 2.063-1.527 4.52-2.296 7.375l-.485.406c-5.18-1.023-9.402-1.789-12.672-2.297a58.565 58.565 0 0 0-7.03-.687l.702-2.688c1.164.012 1.992-.195 2.485-.625.488-.425.828-1.238 1.015-2.437l2.485-15.563c.132-.894.144-1.5.03-1.812-.105-.313-.433-.516-.984-.61-.355-.05-.78-.081-1.28-.093l-.188-.422.718-2.406.829.14c1.906.387 4.082.774 6.53 1.157 6.083.96 10.255 1.445 12.516 1.453l.25.5a49.16 49.16 0 0 0-1.14 3.515 54.87 54.87 0 0 0-.969 3.75l-3.656-.328.328-1.625c.133-.82.11-1.422-.078-1.797-.18-.375-.606-.675-1.281-.906-.668-.238-1.82-.488-3.454-.75-.71-.101-1.21-.148-1.5-.14-.28.011-.484.105-.609.28-.117.18-.219.481-.312.907l-1.297 6.375 3.828.656c.562.094 1.281.172 2.156.235.875.062 1.754.109 2.64.14l.266.422-1.125 3.375a4.385 4.385 0 0 1-.797-.172 209.926 209.926 0 0 0-4.515-.797c-.844-.125-1.914-.203-3.203-.234l-1 5.812c-.117.774-.137 1.336-.063 1.688.07.344.27.594.594.75.32.156.906.305 1.75.437 1.8.282 3.117.387 3.953.313.832-.082 1.473-.406 1.922-.969.457-.57.894-1.566 1.312-2.984l3.375.234ZM120.886 274.32c-1.273-.024-2.445-.165-3.515-.422-1.075-.25-1.961-.516-2.657-.797-.699-.29-1.046-.453-1.046-.485l-.313-.578.203-1.25c.102-.656.219-1.523.344-2.61.133-1.093.207-2.148.219-3.171l3.406-.188c-.031 1.543.082 2.73.344 3.563.257.836.71 1.43 1.359 1.781.645.356 1.57.543 2.781.563 1.332.023 2.399-.25 3.203-.813.813-.562 1.227-1.351 1.25-2.375.008-.906-.402-1.68-1.234-2.328-.824-.656-2.11-1.426-3.86-2.312l-.952-.47c-2.043-1.03-3.637-2.1-4.782-3.218-1.136-1.125-1.695-2.57-1.672-4.344a6.947 6.947 0 0 1 1.485-4.218c.957-1.239 2.273-2.196 3.953-2.875 1.687-.676 3.594-.993 5.719-.954a21.13 21.13 0 0 1 3.359.313c1.04.18 1.867.36 2.484.547.614.187 1.004.32 1.172.39l.282.532c-.032.168-.125.59-.282 1.265a38.548 38.548 0 0 0-.453 2.578 65.624 65.624 0 0 0-.375 3.22l-3.062.187-.375-.25c0-.082.015-.254.047-.516a8.3 8.3 0 0 0 .046-.969c.02-1.25-.277-2.14-.89-2.672-.606-.53-1.637-.804-3.094-.828-1.187-.02-2.168.246-2.937.797-.774.543-1.165 1.258-1.172 2.14-.012.669.218 1.278.687 1.829a7.005 7.005 0 0 0 1.719 1.406c.676.399 1.656.922 2.937 1.578 1.532.774 2.797 1.469 3.797 2.094a8.633 8.633 0 0 1 2.5 2.36c.676.949 1 2.074.969 3.374-.023 1.649-.523 3.09-1.5 4.329-.969 1.242-2.324 2.195-4.062 2.859-1.743.664-3.75.976-6.032.937ZM140.48 270.986c1.238-.258 2.117-.531 2.64-.813.52-.289.844-.718.969-1.28.133-.571.125-1.49-.031-2.75l-1.969-16.47c-1.586.25-2.684.524-3.297.813-.617.293-1.008.793-1.172 1.5-.168.7-.246 1.934-.234 3.703l-3.344.64c-.07-2.288-.25-5.222-.531-8.796l.375-.516 4.14-.031 12.813-1.531 4.094-.938.515.39c.438 3.294.914 6.11 1.438 8.454l-3.375.656c-.438-1.844-.813-3.086-1.125-3.734-.313-.656-.781-1.063-1.406-1.219-.618-.164-1.68-.191-3.188-.078.102 2.043.316 4.809.64 8.297.321 3.492.657 6.664 1 9.515.126 1.012.391 1.715.798 2.11.406.398 1.007.547 1.812.453.676-.082 1.395-.211 2.156-.39l.157.187-.016 2.812c-2.918.23-5.281.453-7.094.672-1.418.168-3.68.524-6.781 1.063ZM161.542 268.23c.738-.3 1.242-.687 1.515-1.156.282-.477.336-1.094.172-1.844l-1.984-8.718c-.2-.864-.453-1.426-.766-1.688-.32-.258-.8-.316-1.437-.172a3.76 3.76 0 0 0-.563.172c-.187.063-.3.117-.343.156l-.282-2.36c1.45-.55 2.914-1.144 4.407-1.78 1.5-.645 2.468-1.078 2.906-1.297l.515.578c-.168.656-.039 2.336.391 5.031.426 2.688 1.047 5.82 1.86 9.39.144.65.343 1.079.593 1.298.258.218.617.277 1.078.172.239-.051.469-.114.688-.188a3.18 3.18 0 0 1 .453-.14l.172.171.172 2.563c-.305.031-.899.137-1.782.312a83.12 83.12 0 0 0-2.687.563c-.844.199-1.79.48-2.828.844a58.361 58.361 0 0 0-2.016.718Zm-.422-21.39c-.895.199-1.64.101-2.234-.297-.602-.406-1.004-1.04-1.204-1.906-.218-.97-.101-1.813.344-2.532.438-.718 1.14-1.187 2.11-1.406.863-.195 1.597-.086 2.203.328.601.406 1.004 1.043 1.203 1.906.207.938.086 1.774-.36 2.5-.449.72-1.136 1.188-2.062 1.407ZM183.429 265.122c-1.648.555-3.227.668-4.734.344-1.5-.332-2.82-1.066-3.954-2.203-1.125-1.133-1.988-2.586-2.593-4.36-.657-1.957-.836-3.828-.547-5.609.281-1.781.996-3.336 2.14-4.672 1.133-1.332 2.633-2.312 4.5-2.937 2.532-.844 4.805-.707 6.829.406 2.02 1.117 3.488 3.047 4.406 5.797.656 1.96.848 3.836.578 5.625-.273 1.793-.98 3.355-2.125 4.687-1.148 1.325-2.648 2.297-4.5 2.922Zm-.203-3.203c1.125-.375 1.828-1.113 2.11-2.219.288-1.101.144-2.53-.438-4.28-.824-2.458-1.79-4.204-2.89-5.235-1.095-1.032-2.282-1.328-3.563-.89-1.125.374-1.836 1.116-2.125 2.218-.282 1.105-.133 2.531.453 4.281.82 2.461 1.785 4.203 2.89 5.234 1.102 1.024 2.29 1.32 3.563.891Zm0 0"/></svg>